<?xml version="1.0" encoding="UTF-8" standalone="no"?>
<!DOCTYPE svg PUBLIC "-//W3C//DTD SVG 1.1//EN"
 "http://www.w3.org/Graphics/SVG/1.1/DTD/svg11.dtd">
<!-- Generated by graphviz version 16.0.0 (20260814.1018)
 -->
<!-- Title: ER Pages: 1 -->
<svg width="741pt" height="941pt"
 viewBox="0.00 0.00 741.00 941.00" xmlns="http://www.w3.org/2000/svg" xmlns:xlink="http://www.w3.org/1999/xlink">
<g id="graph0" class="graph" transform="scale(1 1) rotate(0) translate(18 923)">
<title>ER</title>
<polygon fill="white" stroke="none" points="-18,18 -18,-923 722.82,-923 722.82,18 -18,18"/>
<g id="clust1" class="cluster">
<title>cluster_acc</title>
<path fill="#1b2a41" fill-opacity="0.058824" stroke="#1b2a41" stroke-width="1.4" stroke-opacity="0.333333" d="M20,-508C20,-508 136.7,-508 136.7,-508 142.7,-508 148.7,-514 148.7,-520 148.7,-520 148.7,-633 148.7,-633 148.7,-639 142.7,-645 136.7,-645 136.7,-645 20,-645 20,-645 14,-645 8,-639 8,-633 8,-633 8,-520 8,-520 8,-514 14,-508 20,-508"/>
<text xml:space="preserve" text-anchor="start" x="16" y="-629.4" font-family="Arial" font-weight="bold" font-size="14.00" fill="#1b2a41">Учётные записи</text>
</g>
<g id="clust2" class="cluster">
<title>cluster_intake</title>
<path fill="#2d6cdf" fill-opacity="0.058824" stroke="#2d6cdf" stroke-width="1.4" stroke-opacity="0.333333" d="M237.2,-682C237.2,-682 391.81,-682 391.81,-682 397.81,-682 403.81,-688 403.81,-694 403.81,-694 403.81,-885 403.81,-885 403.81,-891 397.81,-897 391.81,-897 391.81,-897 237.2,-897 237.2,-897 231.2,-897 225.2,-891 225.2,-885 225.2,-885 225.2,-694 225.2,-694 225.2,-688 231.2,-682 237.2,-682"/>
<text xml:space="preserve" text-anchor="start" x="233.2" y="-881.4" font-family="Arial" font-weight="bold" font-size="14.00" fill="#2d6cdf">Приём заявок</text>
</g>
<g id="clust3" class="cluster">
<title>cluster_stock</title>
<path fill="#e08a00" fill-opacity="0.058824" stroke="#e08a00" stroke-width="1.4" stroke-opacity="0.333333" d="M211.7,-8C211.7,-8 684.82,-8 684.82,-8 690.82,-8 696.82,-14 696.82,-20 696.82,-20 696.82,-662 696.82,-662 696.82,-668 690.82,-674 684.82,-674 684.82,-674 211.7,-674 211.7,-674 205.7,-674 199.7,-668 199.7,-662 199.7,-662 199.7,-20 199.7,-20 199.7,-14 205.7,-8 211.7,-8"/>
<text xml:space="preserve" text-anchor="start" x="207.7" y="-658.4" font-family="Arial" font-weight="bold" font-size="14.00" fill="#e08a00">Склад запчастей</text>
</g>
<!-- users -->
<g id="node1" class="node">
<title>users</title>
<polygon fill="white" stroke="none" points="22,-521.6 22,-606.4 134.7,-606.4 134.7,-521.6 22,-521.6"/>
<polygon fill="none" stroke="#c9d2dc" points="22,-521.6 22,-606.4 134.7,-606.4 134.7,-521.6 22,-521.6"/>
<polygon fill="#1b2a41" stroke="none" points="23,-577.8 23,-605.4 133.7,-605.4 133.7,-577.8 23,-577.8"/>
<text xml:space="preserve" text-anchor="start" x="29" y="-588.7" font-family="Arial" font-weight="bold" font-size="13.00" fill="white">users</text>
<text xml:space="preserve" text-anchor="start" x="26" y="-566.5" font-family="Arial" font-weight="bold" font-size="9.00" fill="#c27c00">PK</text>
<text xml:space="preserve" text-anchor="start" x="60" y="-565.9" font-family="Arial" font-weight="bold" font-size="11.00" fill="#212121">id</text>
<text xml:space="preserve" text-anchor="start" x="99.02" y="-564.2" font-family="Arial" font-size="10.00" fill="#7a8794">int &#160;</text>
<text xml:space="preserve" text-anchor="start" x="26" y="-547.3" font-family="Arial" font-weight="bold" font-size="9.00" fill="#2d6cdf">FK</text>
<text xml:space="preserve" text-anchor="start" x="60" y="-544.6" font-family="Arial" font-size="11.00" fill="#212121">role_id</text>
<text xml:space="preserve" text-anchor="start" x="99.02" y="-545" font-family="Arial" font-size="10.00" fill="#7a8794">tinyint &#160;</text>
<text xml:space="preserve" text-anchor="start" x="26" y="-527.4" font-family="Arial" font-size="9.00" fill="#7a8794">… ещё полей: 10</text>
</g>
<!-- orders -->
<g id="node2" class="node">
<title>orders</title>
<polygon fill="white" stroke="none" points="239.2,-696.2 239.2,-857.8 389.81,-857.8 389.81,-696.2 239.2,-696.2"/>
<polygon fill="none" stroke="#c9d2dc" points="239.2,-696.2 239.2,-857.8 389.81,-857.8 389.81,-696.2 239.2,-696.2"/>
<polygon fill="#2d6cdf" stroke="none" points="240.2,-829.2 240.2,-856.8 388.81,-856.8 388.81,-829.2 240.2,-829.2"/>
<text xml:space="preserve" text-anchor="start" x="246.2" y="-840.1" font-family="Arial" font-weight="bold" font-size="13.00" fill="white">orders</text>
<text xml:space="preserve" text-anchor="start" x="243.2" y="-817.9" font-family="Arial" font-weight="bold" font-size="9.00" fill="#c27c00">PK</text>
<text xml:space="preserve" text-anchor="start" x="277.2" y="-817.3" font-family="Arial" font-weight="bold" font-size="11.00" fill="#212121">id</text>
<text xml:space="preserve" text-anchor="start" x="354.13" y="-815.6" font-family="Arial" font-size="10.00" fill="#7a8794">int &#160;</text>
<text xml:space="preserve" text-anchor="start" x="243.2" y="-798.7" font-family="Arial" font-weight="bold" font-size="9.00" fill="#2d6cdf">FK</text>
<text xml:space="preserve" text-anchor="start" x="277.2" y="-796" font-family="Arial" font-size="11.00" fill="#212121">client_id</text>
<text xml:space="preserve" text-anchor="start" x="354.13" y="-796.4" font-family="Arial" font-size="10.00" fill="#7a8794">int &#160;</text>
<text xml:space="preserve" text-anchor="start" x="243.2" y="-779.5" font-family="Arial" font-weight="bold" font-size="9.00" fill="#2d6cdf">FK</text>
<text xml:space="preserve" text-anchor="start" x="277.2" y="-776.8" font-family="Arial" font-size="11.00" fill="#212121">device_id</text>
<text xml:space="preserve" text-anchor="start" x="354.13" y="-777.2" font-family="Arial" font-size="10.00" fill="#7a8794">int &#160;</text>
<text xml:space="preserve" text-anchor="start" x="243.2" y="-760.3" font-family="Arial" font-weight="bold" font-size="9.00" fill="#2d6cdf">FK</text>
<text xml:space="preserve" text-anchor="start" x="277.2" y="-757.6" font-family="Arial" font-size="11.00" fill="#212121">receptionist_id</text>
<text xml:space="preserve" text-anchor="start" x="354.13" y="-758" font-family="Arial" font-size="10.00" fill="#7a8794">int &#160;</text>
<text xml:space="preserve" text-anchor="start" x="243.2" y="-741.1" font-family="Arial" font-weight="bold" font-size="9.00" fill="#2d6cdf">FK</text>
<text xml:space="preserve" text-anchor="start" x="277.2" y="-740.5" font-family="Arial" font-size="11.00" fill="#212121">master_id</text>
<text xml:space="preserve" text-anchor="start" x="325.5" y="-740.5" font-family="Arial" font-size="11.00" fill="#7a8794"> ?</text>
<text xml:space="preserve" text-anchor="start" x="354.13" y="-738.8" font-family="Arial" font-size="10.00" fill="#7a8794">int &#160;</text>
<text xml:space="preserve" text-anchor="start" x="243.2" y="-721.9" font-family="Arial" font-weight="bold" font-size="9.00" fill="#2d6cdf">FK</text>
<text xml:space="preserve" text-anchor="start" x="277.2" y="-719.2" font-family="Arial" font-size="11.00" fill="#212121">status_id</text>
<text xml:space="preserve" text-anchor="start" x="354.13" y="-719.6" font-family="Arial" font-size="10.00" fill="#7a8794">tinyint &#160;</text>
<text xml:space="preserve" text-anchor="start" x="243.2" y="-702" font-family="Arial" font-size="9.00" fill="#7a8794">… ещё полей: 13</text>
</g>
<!-- users&#45;&gt;orders -->
<g id="edge4" class="edge">
<title>users:e&#45;&gt;orders:w</title>
<path fill="none" stroke="#8a97a6" stroke-width="1.2" d="M142.58,-568.61C236.72,-578.82 140.35,-777.27 223.28,-798.55"/>
<polygon fill="#8a97a6" stroke="#8a97a6" stroke-width="1.2" points="135.29,-572.24 135.71,-564.25 137.31,-564.33 136.89,-572.32 135.29,-572.24"/>
<polyline fill="none" stroke="#8a97a6" stroke-width="1.2" points="134.7,-568.2 138.7,-568.41"/>
<polygon fill="#8a97a6" stroke="#8a97a6" stroke-width="1.2" points="139.29,-572.44 139.7,-564.45 141.3,-564.54 140.89,-572.53 139.29,-572.44"/>
<polyline fill="none" stroke="#8a97a6" stroke-width="1.2" points="138.7,-568.41 142.69,-568.61"/>
<polygon fill="#8a97a6" stroke="#8a97a6" stroke-width="1.2" points="230.85,-799.43 238.39,-803.93 235.23,-799.94 238.4,-800.31 238.4,-800.31 238.4,-800.31 235.23,-799.94 239.21,-796.78 230.85,-799.43"/>
<ellipse fill="none" stroke="#8a97a6" stroke-width="1.2" cx="225.63" cy="-798.83" rx="3.2" ry="3.2"/>
</g>
<!-- users&#45;&gt;orders -->
<g id="edge5" class="edge">
<title>users:e&#45;&gt;orders:w</title>
<path fill="none" stroke="#a9b4bf" stroke-width="1.2" stroke-dasharray="5,2" d="M145.91,-569.23C213.64,-582.56 161.17,-721.7 223.53,-740.66"/>
<polygon fill="#a9b4bf" stroke="#a9b4bf" stroke-width="1.2" points="135.13,-572.26 135.86,-564.29 137.46,-564.44 136.73,-572.4 135.13,-572.26"/>
<polyline fill="none" stroke="#a9b4bf" stroke-width="1.2" points="134.7,-568.2 138.68,-568.56"/>
<ellipse fill="none" stroke="#a9b4bf" stroke-width="1.2" cx="142.47" cy="-568.91" rx="3.2" ry="3.2"/>
<polygon fill="#a9b4bf" stroke="#a9b4bf" stroke-width="1.2" points="230.87,-741.67 238.32,-746.31 235.24,-742.26 238.4,-742.69 238.4,-742.69 238.4,-742.69 235.24,-742.26 239.29,-739.18 230.87,-741.67"/>
<ellipse fill="none" stroke="#a9b4bf" stroke-width="1.2" cx="225.66" cy="-740.96" rx="3.2" ry="3.2"/>
</g>
<!-- users&#45;&gt;orders -->
<g id="edge6" class="edge">
<title>users:e&#45;&gt;orders:w</title>
<path fill="none" stroke="#a9b4bf" stroke-width="1.2" stroke-dasharray="5,2" d="M142.57,-568.66C222.23,-578.37 153.88,-739.8 223.38,-759.94"/>
<polygon fill="#a9b4bf" stroke="#a9b4bf" stroke-width="1.2" points="135.27,-572.24 135.73,-564.25 137.33,-564.35 136.86,-572.33 135.27,-572.24"/>
<polyline fill="none" stroke="#a9b4bf" stroke-width="1.2" points="134.7,-568.2 138.69,-568.43"/>
<polygon fill="#a9b4bf" stroke="#a9b4bf" stroke-width="1.2" points="139.26,-572.47 139.73,-564.49 141.32,-564.58 140.86,-572.56 139.26,-572.47"/>
<polyline fill="none" stroke="#a9b4bf" stroke-width="1.2" points="138.69,-568.43 142.69,-568.66"/>
<polygon fill="#a9b4bf" stroke="#a9b4bf" stroke-width="1.2" points="230.87,-760.92 238.34,-765.52 235.23,-761.48 238.4,-761.9 238.4,-761.9 238.4,-761.9 235.23,-761.48 239.27,-758.38 230.87,-760.92"/>
<ellipse fill="none" stroke="#a9b4bf" stroke-width="1.2" cx="225.65" cy="-760.24" rx="3.2" ry="3.2"/>
</g>
<!-- inventories -->
<g id="node3" class="node">
<title>inventories</title>
<polygon fill="white" stroke="none" points="225.75,-500.2 225.75,-625.8 403.26,-625.8 403.26,-500.2 225.75,-500.2"/>
<polygon fill="none" stroke="#c9d2dc" points="225.75,-500.2 225.75,-625.8 403.26,-625.8 403.26,-500.2 225.75,-500.2"/>
<polygon fill="#e08a00" stroke="none" points="226.75,-597.2 226.75,-624.8 402.26,-624.8 402.26,-597.2 226.75,-597.2"/>
<text xml:space="preserve" text-anchor="start" x="232.75" y="-608.1" font-family="Arial" font-weight="bold" font-size="13.00" fill="white">inventories</text>
<text xml:space="preserve" text-anchor="start" x="229.75" y="-585.9" font-family="Arial" font-weight="bold" font-size="9.00" fill="#c27c00">PK</text>
<text xml:space="preserve" text-anchor="start" x="263.75" y="-585.3" font-family="Arial" font-weight="bold" font-size="11.00" fill="#212121">id</text>
<text xml:space="preserve" text-anchor="start" x="337.01" y="-583.6" font-family="Arial" font-size="10.00" fill="#7a8794">int &#160;</text>
<text xml:space="preserve" text-anchor="start" x="229.75" y="-566.7" font-family="Arial" font-weight="bold" font-size="9.00" fill="#2d6cdf">FK</text>
<text xml:space="preserve" text-anchor="start" x="263.75" y="-564" font-family="Arial" font-size="11.00" fill="#212121">created_by</text>
<text xml:space="preserve" text-anchor="start" x="337.01" y="-564.4" font-family="Arial" font-size="10.00" fill="#7a8794">int &#160;</text>
<text xml:space="preserve" text-anchor="start" x="229.75" y="-544.8" font-family="Arial" font-size="11.00" fill="#212121"> </text>
<text xml:space="preserve" text-anchor="start" x="263.75" y="-544.8" font-family="Arial" font-size="11.00" fill="#212121">created_at</text>
<text xml:space="preserve" text-anchor="start" x="337.01" y="-545.2" font-family="Arial" font-size="10.00" fill="#7a8794">datetime &#160;</text>
<text xml:space="preserve" text-anchor="start" x="229.75" y="-525.6" font-family="Arial" font-size="11.00" fill="#212121"> </text>
<text xml:space="preserve" text-anchor="start" x="263.75" y="-527.7" font-family="Arial" font-size="11.00" fill="#212121">comment</text>
<text xml:space="preserve" text-anchor="start" x="308.99" y="-527.7" font-family="Arial" font-size="11.00" fill="#7a8794"> ?</text>
<text xml:space="preserve" text-anchor="start" x="337.01" y="-526" font-family="Arial" font-size="10.00" fill="#7a8794">varchar(300) &#160;</text>
<text xml:space="preserve" text-anchor="start" x="229.75" y="-506.4" font-family="Arial" font-size="11.00" fill="#212121"> </text>
<text xml:space="preserve" text-anchor="start" x="263.75" y="-506.4" font-family="Arial" font-size="11.00" fill="#212121">discrepancies</text>
<text xml:space="preserve" text-anchor="start" x="337.01" y="-506.8" font-family="Arial" font-size="10.00" fill="#7a8794">int &#160;</text>
</g>
<!-- users&#45;&gt;inventories -->
<g id="edge1" class="edge">
<title>users:e&#45;&gt;inventories:w</title>
<path fill="none" stroke="#a9b4bf" stroke-width="1.2" stroke-dasharray="5,2" d="M142.38,-568.2C171.29,-568.22 183.87,-568.35 209.79,-568.39"/>
<polygon fill="#a9b4bf" stroke="#a9b4bf" stroke-width="1.2" points="135.5,-572.2 135.5,-564.2 137.1,-564.2 137.1,-572.2 135.5,-572.2"/>
<polyline fill="none" stroke="#a9b4bf" stroke-width="1.2" points="134.7,-568.2 138.7,-568.2"/>
<polygon fill="#a9b4bf" stroke="#a9b4bf" stroke-width="1.2" points="139.5,-572.2 139.5,-564.2 141.1,-564.2 141.1,-572.2 139.5,-572.2"/>
<polyline fill="none" stroke="#a9b4bf" stroke-width="1.2" points="138.7,-568.2 142.7,-568.2"/>
<polygon fill="#a9b4bf" stroke="#a9b4bf" stroke-width="1.2" points="217.35,-568.39 225.35,-572 221.75,-568.4 224.95,-568.4 224.95,-568.4 224.95,-568.4 221.75,-568.4 225.35,-564.8 217.35,-568.39"/>
<ellipse fill="none" stroke="#a9b4bf" stroke-width="1.2" cx="212.09" cy="-568.39" rx="3.2" ry="3.2"/>
</g>
<!-- part_movements -->
<g id="node5" class="node">
<title>part_movements</title>
<polygon fill="white" stroke="none" points="494.31,-265.8 494.31,-468.2 682.82,-468.2 682.82,-265.8 494.31,-265.8"/>
<polygon fill="none" stroke="#c9d2dc" points="494.31,-265.8 494.31,-468.2 682.82,-468.2 682.82,-265.8 494.31,-265.8"/>
<polygon fill="#e08a00" stroke="none" points="495.31,-439.6 495.31,-467.2 681.82,-467.2 681.82,-439.6 495.31,-439.6"/>
<text xml:space="preserve" text-anchor="start" x="501.31" y="-450.5" font-family="Arial" font-weight="bold" font-size="13.00" fill="white">part_movements</text>
<text xml:space="preserve" text-anchor="start" x="498.31" y="-428.3" font-family="Arial" font-weight="bold" font-size="9.00" fill="#c27c00">PK</text>
<text xml:space="preserve" text-anchor="start" x="532.31" y="-427.7" font-family="Arial" font-weight="bold" font-size="11.00" fill="#212121">id</text>
<text xml:space="preserve" text-anchor="start" x="616.57" y="-426" font-family="Arial" font-size="10.00" fill="#7a8794">int &#160;</text>
<text xml:space="preserve" text-anchor="start" x="498.31" y="-409.1" font-family="Arial" font-weight="bold" font-size="9.00" fill="#2d6cdf">FK</text>
<text xml:space="preserve" text-anchor="start" x="532.31" y="-406.4" font-family="Arial" font-size="11.00" fill="#212121">part_id</text>
<text xml:space="preserve" text-anchor="start" x="616.57" y="-406.8" font-family="Arial" font-size="10.00" fill="#7a8794">int &#160;</text>
<text xml:space="preserve" text-anchor="start" x="498.31" y="-389.9" font-family="Arial" font-weight="bold" font-size="9.00" fill="#2d6cdf">FK</text>
<text xml:space="preserve" text-anchor="start" x="532.31" y="-389.3" font-family="Arial" font-size="11.00" fill="#212121">order_id</text>
<text xml:space="preserve" text-anchor="start" x="572.67" y="-389.3" font-family="Arial" font-size="11.00" fill="#7a8794"> ?</text>
<text xml:space="preserve" text-anchor="start" x="616.57" y="-387.6" font-family="Arial" font-size="10.00" fill="#7a8794">int &#160;</text>
<text xml:space="preserve" text-anchor="start" x="498.31" y="-368" font-family="Arial" font-size="11.00" fill="#212121"> </text>
<text xml:space="preserve" text-anchor="start" x="532.31" y="-368" font-family="Arial" font-size="11.00" fill="#212121">movement_type</text>
<text xml:space="preserve" text-anchor="start" x="616.57" y="-368.4" font-family="Arial" font-size="10.00" fill="#7a8794">enum &#160;</text>
<text xml:space="preserve" text-anchor="start" x="498.31" y="-348.8" font-family="Arial" font-size="11.00" fill="#212121"> </text>
<text xml:space="preserve" text-anchor="start" x="532.31" y="-348.8" font-family="Arial" font-size="11.00" fill="#212121">quantity</text>
<text xml:space="preserve" text-anchor="start" x="616.57" y="-349.2" font-family="Arial" font-size="10.00" fill="#7a8794">int &#160;</text>
<text xml:space="preserve" text-anchor="start" x="498.31" y="-329.6" font-family="Arial" font-size="11.00" fill="#212121"> </text>
<text xml:space="preserve" text-anchor="start" x="532.31" y="-329.6" font-family="Arial" font-size="11.00" fill="#212121">balance_after</text>
<text xml:space="preserve" text-anchor="start" x="616.57" y="-330" font-family="Arial" font-size="10.00" fill="#7a8794">int &#160;</text>
<text xml:space="preserve" text-anchor="start" x="498.31" y="-313.1" font-family="Arial" font-weight="bold" font-size="9.00" fill="#2d6cdf">FK</text>
<text xml:space="preserve" text-anchor="start" x="532.31" y="-310.4" font-family="Arial" font-size="11.00" fill="#212121">user_id</text>
<text xml:space="preserve" text-anchor="start" x="616.57" y="-310.8" font-family="Arial" font-size="10.00" fill="#7a8794">int &#160;</text>
<text xml:space="preserve" text-anchor="start" x="498.31" y="-291.2" font-family="Arial" font-size="11.00" fill="#212121"> </text>
<text xml:space="preserve" text-anchor="start" x="532.31" y="-291.2" font-family="Arial" font-size="11.00" fill="#212121">created_at</text>
<text xml:space="preserve" text-anchor="start" x="616.57" y="-291.6" font-family="Arial" font-size="10.00" fill="#7a8794">datetime &#160;</text>
<text xml:space="preserve" text-anchor="start" x="498.31" y="-272" font-family="Arial" font-size="11.00" fill="#212121"> </text>
<text xml:space="preserve" text-anchor="start" x="532.31" y="-274.1" font-family="Arial" font-size="11.00" fill="#212121">comment</text>
<text xml:space="preserve" text-anchor="start" x="577.54" y="-274.1" font-family="Arial" font-size="11.00" fill="#7a8794"> ?</text>
<text xml:space="preserve" text-anchor="start" x="616.57" y="-272.4" font-family="Arial" font-size="10.00" fill="#7a8794">varchar(300) &#160;</text>
</g>
<!-- users&#45;&gt;part_movements -->
<g id="edge9" class="edge">
<title>users:e&#45;&gt;part_movements:w</title>
<path fill="none" stroke="#a9b4bf" stroke-width="1.2" stroke-dasharray="5,2" d="M142.51,-567.98C281.85,-559.71 82.86,-323.68 199.7,-227 273.53,-165.91 327.77,-188.01 415.31,-227 457.64,-245.86 445.89,-299.85 478.67,-312.24"/>
<polygon fill="#a9b4bf" stroke="#a9b4bf" stroke-width="1.2" points="135.62,-572.18 135.39,-564.18 136.99,-564.13 137.21,-572.13 135.62,-572.18"/>
<polyline fill="none" stroke="#a9b4bf" stroke-width="1.2" points="134.7,-568.2 138.7,-568.09"/>
<polygon fill="#a9b4bf" stroke="#a9b4bf" stroke-width="1.2" points="139.61,-572.06 139.38,-564.06 140.98,-564.02 141.21,-572.02 139.61,-572.06"/>
<polyline fill="none" stroke="#a9b4bf" stroke-width="1.2" points="138.7,-568.09 142.7,-567.97"/>
<polygon fill="#a9b4bf" stroke="#a9b4bf" stroke-width="1.2" points="486.02,-313.44 493.33,-318.29 490.36,-314.15 493.51,-314.67 493.51,-314.67 493.51,-314.67 490.36,-314.15 494.49,-311.18 486.02,-313.44"/>
<ellipse fill="none" stroke="#a9b4bf" stroke-width="1.2" cx="480.82" cy="-312.59" rx="3.2" ry="3.2"/>
</g>
<!-- part_reservations -->
<g id="node6" class="node">
<title>part_reservations</title>
<polygon fill="white" stroke="none" points="498.16,-22.2 498.16,-243.8 678.96,-243.8 678.96,-22.2 498.16,-22.2"/>
<polygon fill="none" stroke="#c9d2dc" points="498.16,-22.2 498.16,-243.8 678.96,-243.8 678.96,-22.2 498.16,-22.2"/>
<polygon fill="#e08a00" stroke="none" points="499.16,-215.2 499.16,-242.8 677.96,-242.8 677.96,-215.2 499.16,-215.2"/>
<text xml:space="preserve" text-anchor="start" x="505.16" y="-226.1" font-family="Arial" font-weight="bold" font-size="13.00" fill="white">part_reservations</text>
<text xml:space="preserve" text-anchor="start" x="502.16" y="-203.9" font-family="Arial" font-weight="bold" font-size="9.00" fill="#c27c00">PK</text>
<text xml:space="preserve" text-anchor="start" x="536.16" y="-203.3" font-family="Arial" font-weight="bold" font-size="11.00" fill="#212121">id</text>
<text xml:space="preserve" text-anchor="start" x="608.82" y="-201.6" font-family="Arial" font-size="10.00" fill="#7a8794">int &#160;</text>
<text xml:space="preserve" text-anchor="start" x="502.16" y="-184.7" font-family="Arial" font-weight="bold" font-size="9.00" fill="#2d6cdf">FK</text>
<text xml:space="preserve" text-anchor="start" x="536.16" y="-182" font-family="Arial" font-size="11.00" fill="#212121">order_id</text>
<text xml:space="preserve" text-anchor="start" x="608.82" y="-182.4" font-family="Arial" font-size="10.00" fill="#7a8794">int &#160;</text>
<text xml:space="preserve" text-anchor="start" x="502.16" y="-165.5" font-family="Arial" font-weight="bold" font-size="9.00" fill="#2d6cdf">FK</text>
<text xml:space="preserve" text-anchor="start" x="536.16" y="-162.8" font-family="Arial" font-size="11.00" fill="#212121">part_id</text>
<text xml:space="preserve" text-anchor="start" x="608.82" y="-163.2" font-family="Arial" font-size="10.00" fill="#7a8794">int &#160;</text>
<text xml:space="preserve" text-anchor="start" x="502.16" y="-143.6" font-family="Arial" font-size="11.00" fill="#212121"> </text>
<text xml:space="preserve" text-anchor="start" x="536.16" y="-143.6" font-family="Arial" font-size="11.00" fill="#212121">quantity</text>
<text xml:space="preserve" text-anchor="start" x="608.82" y="-144" font-family="Arial" font-size="10.00" fill="#7a8794">int &#160;</text>
<text xml:space="preserve" text-anchor="start" x="502.16" y="-124.4" font-family="Arial" font-size="11.00" fill="#212121"> </text>
<text xml:space="preserve" text-anchor="start" x="536.16" y="-124.4" font-family="Arial" font-size="11.00" fill="#212121">price</text>
<text xml:space="preserve" text-anchor="start" x="608.82" y="-124.8" font-family="Arial" font-size="10.00" fill="#7a8794">decimal(10,2) &#160;</text>
<text xml:space="preserve" text-anchor="start" x="502.16" y="-105.2" font-family="Arial" font-size="11.00" fill="#212121"> </text>
<text xml:space="preserve" text-anchor="start" x="536.16" y="-105.2" font-family="Arial" font-size="11.00" fill="#212121">status</text>
<text xml:space="preserve" text-anchor="start" x="608.82" y="-105.6" font-family="Arial" font-size="10.00" fill="#7a8794">enum &#160;</text>
<text xml:space="preserve" text-anchor="start" x="502.16" y="-88.7" font-family="Arial" font-weight="bold" font-size="9.00" fill="#2d6cdf">FK</text>
<text xml:space="preserve" text-anchor="start" x="536.16" y="-86" font-family="Arial" font-size="11.00" fill="#212121">requested_by</text>
<text xml:space="preserve" text-anchor="start" x="608.82" y="-86.4" font-family="Arial" font-size="10.00" fill="#7a8794">int &#160;</text>
<text xml:space="preserve" text-anchor="start" x="502.16" y="-69.5" font-family="Arial" font-weight="bold" font-size="9.00" fill="#2d6cdf">FK</text>
<text xml:space="preserve" text-anchor="start" x="536.16" y="-68.9" font-family="Arial" font-size="11.00" fill="#212121">issued_by</text>
<text xml:space="preserve" text-anchor="start" x="585.69" y="-68.9" font-family="Arial" font-size="11.00" fill="#7a8794"> ?</text>
<text xml:space="preserve" text-anchor="start" x="608.82" y="-67.2" font-family="Arial" font-size="10.00" fill="#7a8794">int &#160;</text>
<text xml:space="preserve" text-anchor="start" x="502.16" y="-47.6" font-family="Arial" font-size="11.00" fill="#212121"> </text>
<text xml:space="preserve" text-anchor="start" x="536.16" y="-47.6" font-family="Arial" font-size="11.00" fill="#212121">created_at</text>
<text xml:space="preserve" text-anchor="start" x="608.82" y="-48" font-family="Arial" font-size="10.00" fill="#7a8794">datetime &#160;</text>
<text xml:space="preserve" text-anchor="start" x="502.16" y="-28.4" font-family="Arial" font-size="11.00" fill="#212121"> </text>
<text xml:space="preserve" text-anchor="start" x="536.16" y="-30.5" font-family="Arial" font-size="11.00" fill="#212121">issued_at</text>
<text xml:space="preserve" text-anchor="start" x="583.25" y="-30.5" font-family="Arial" font-size="11.00" fill="#7a8794"> ?</text>
<text xml:space="preserve" text-anchor="start" x="608.82" y="-28.8" font-family="Arial" font-size="10.00" fill="#7a8794">datetime &#160;</text>
</g>
<!-- users&#45;&gt;part_reservations -->
<g id="edge10" class="edge">
<title>users:e&#45;&gt;part_reservations:w</title>
<path fill="none" stroke="#a9b4bf" stroke-width="1.2" stroke-dasharray="5,2" d="M145.93,-566.38C225.84,-538.29 133.56,-194.54 199.7,-126 289.6,-32.84 357.66,-68.04 482.27,-71.01"/>
<polygon fill="#a9b4bf" stroke="#a9b4bf" stroke-width="1.2" points="136.13,-572.02 134.85,-564.12 136.43,-563.87 137.71,-571.76 136.13,-572.02"/>
<polyline fill="none" stroke="#a9b4bf" stroke-width="1.2" points="134.7,-568.2 138.65,-567.56"/>
<ellipse fill="none" stroke="#a9b4bf" stroke-width="1.2" cx="142.4" cy="-566.95" rx="3.2" ry="3.2"/>
<polygon fill="#a9b4bf" stroke="#a9b4bf" stroke-width="1.2" points="489.76,-71.1 497.72,-74.79 494.16,-71.15 497.36,-71.19 497.36,-71.19 497.36,-71.19 494.16,-71.15 497.8,-67.6 489.76,-71.1"/>
<ellipse fill="none" stroke="#a9b4bf" stroke-width="1.2" cx="484.5" cy="-71.04" rx="3.2" ry="3.2"/>
</g>
<!-- users&#45;&gt;part_reservations -->
<g id="edge13" class="edge">
<title>users:e&#45;&gt;part_reservations:w</title>
<path fill="none" stroke="#a9b4bf" stroke-width="1.2" stroke-dasharray="5,2" d="M142.34,-567.28C216.52,-548.51 144.56,-247.22 199.7,-184 209.79,-172.44 421.13,-108.34 482.48,-93.48"/>
<polygon fill="#a9b4bf" stroke="#a9b4bf" stroke-width="1.2" points="135.97,-572.08 135.02,-564.13 136.61,-563.94 137.56,-571.89 135.97,-572.08"/>
<polyline fill="none" stroke="#a9b4bf" stroke-width="1.2" points="134.7,-568.2 138.67,-567.72"/>
<polygon fill="#a9b4bf" stroke="#a9b4bf" stroke-width="1.2" points="139.94,-571.6 138.99,-563.66 140.58,-563.47 141.53,-571.41 139.94,-571.6"/>
<polyline fill="none" stroke="#a9b4bf" stroke-width="1.2" points="138.67,-567.72 142.64,-567.25"/>
<polygon fill="#a9b4bf" stroke="#a9b4bf" stroke-width="1.2" points="489.92,-92.02 498.46,-94.01 494.24,-91.17 497.37,-90.55 497.37,-90.55 497.37,-90.55 494.24,-91.17 497.07,-86.94 489.92,-92.02"/>
<ellipse fill="none" stroke="#a9b4bf" stroke-width="1.2" cx="484.75" cy="-93.03" rx="3.2" ry="3.2"/>
</g>
<!-- orders&#45;&gt;part_movements -->
<g id="edge7" class="edge">
<title>orders:e&#45;&gt;part_movements:w</title>
<path fill="none" stroke="#8a97a6" stroke-width="1.2" d="M401.26,-819.07C568.98,-802.72 318.04,-415.32 478.62,-392.64"/>
<polygon fill="#8a97a6" stroke="#8a97a6" stroke-width="1.2" points="390.79,-823.56 390.42,-815.57 392.02,-815.49 392.39,-823.48 390.79,-823.56"/>
<polyline fill="none" stroke="#8a97a6" stroke-width="1.2" points="389.81,-819.6 393.81,-819.41"/>
<ellipse fill="none" stroke="#8a97a6" stroke-width="1.2" cx="397.6" cy="-819.24" rx="3.2" ry="3.2"/>
<polygon fill="#8a97a6" stroke="#8a97a6" stroke-width="1.2" points="485.92,-392.15 494.14,-395.22 490.32,-391.86 493.51,-391.65 493.51,-391.65 493.51,-391.65 490.32,-391.86 493.67,-388.03 485.92,-392.15"/>
<ellipse fill="none" stroke="#8a97a6" stroke-width="1.2" cx="480.67" cy="-392.5" rx="3.2" ry="3.2"/>
</g>
<!-- orders&#45;&gt;part_reservations -->
<g id="edge11" class="edge">
<title>orders:e&#45;&gt;part_reservations:w</title>
<path fill="none" stroke="#8a97a6" stroke-width="1.2" d="M397.43,-818.95C520.82,-797.25 371.34,-235.44 482.44,-189.4"/>
<polygon fill="#8a97a6" stroke="#8a97a6" stroke-width="1.2" points="390.94,-823.52 390.27,-815.55 391.86,-815.41 392.54,-823.38 390.94,-823.52"/>
<polyline fill="none" stroke="#8a97a6" stroke-width="1.2" points="389.81,-819.6 393.8,-819.26"/>
<polygon fill="#8a97a6" stroke="#8a97a6" stroke-width="1.2" points="394.93,-823.18 394.25,-815.21 395.85,-815.07 396.52,-823.05 394.93,-823.18"/>
<polyline fill="none" stroke="#8a97a6" stroke-width="1.2" points="393.8,-819.26 397.78,-818.92"/>
<polygon fill="#8a97a6" stroke="#8a97a6" stroke-width="1.2" points="489.91,-187.97 498.44,-190.01 494.23,-187.15 497.37,-186.55 497.37,-186.55 497.37,-186.55 494.23,-187.15 497.09,-182.94 489.91,-187.97"/>
<ellipse fill="none" stroke="#8a97a6" stroke-width="1.2" cx="484.74" cy="-188.96" rx="3.2" ry="3.2"/>
</g>
<!-- inventory_items -->
<g id="node4" class="node">
<title>inventory_items</title>
<polygon fill="white" stroke="none" points="523.78,-490.6 523.78,-635.4 653.34,-635.4 653.34,-490.6 523.78,-490.6"/>
<polygon fill="none" stroke="#c9d2dc" points="523.78,-490.6 523.78,-635.4 653.34,-635.4 653.34,-490.6 523.78,-490.6"/>
<polygon fill="#e08a00" stroke="none" points="524.78,-606.8 524.78,-634.4 652.34,-634.4 652.34,-606.8 524.78,-606.8"/>
<text xml:space="preserve" text-anchor="start" x="530.78" y="-617.7" font-family="Arial" font-weight="bold" font-size="13.00" fill="white">inventory_items</text>
<text xml:space="preserve" text-anchor="start" x="527.78" y="-595.5" font-family="Arial" font-weight="bold" font-size="9.00" fill="#c27c00">PK</text>
<text xml:space="preserve" text-anchor="start" x="561.78" y="-594.9" font-family="Arial" font-weight="bold" font-size="11.00" fill="#212121">id</text>
<text xml:space="preserve" text-anchor="start" x="633.22" y="-593.2" font-family="Arial" font-size="10.00" fill="#7a8794">int &#160;</text>
<text xml:space="preserve" text-anchor="start" x="527.78" y="-576.3" font-family="Arial" font-weight="bold" font-size="9.00" fill="#2d6cdf">FK</text>
<text xml:space="preserve" text-anchor="start" x="561.78" y="-573.6" font-family="Arial" font-size="11.00" fill="#212121">inventory_id</text>
<text xml:space="preserve" text-anchor="start" x="633.22" y="-574" font-family="Arial" font-size="10.00" fill="#7a8794">int &#160;</text>
<text xml:space="preserve" text-anchor="start" x="527.78" y="-557.1" font-family="Arial" font-weight="bold" font-size="9.00" fill="#2d6cdf">FK</text>
<text xml:space="preserve" text-anchor="start" x="561.78" y="-554.4" font-family="Arial" font-size="11.00" fill="#212121">part_id</text>
<text xml:space="preserve" text-anchor="start" x="633.22" y="-554.8" font-family="Arial" font-size="10.00" fill="#7a8794">int &#160;</text>
<text xml:space="preserve" text-anchor="start" x="527.78" y="-535.2" font-family="Arial" font-size="11.00" fill="#212121"> </text>
<text xml:space="preserve" text-anchor="start" x="561.78" y="-535.2" font-family="Arial" font-size="11.00" fill="#212121">expected_qty</text>
<text xml:space="preserve" text-anchor="start" x="633.22" y="-535.6" font-family="Arial" font-size="10.00" fill="#7a8794">int &#160;</text>
<text xml:space="preserve" text-anchor="start" x="527.78" y="-516" font-family="Arial" font-size="11.00" fill="#212121"> </text>
<text xml:space="preserve" text-anchor="start" x="561.78" y="-516" font-family="Arial" font-size="11.00" fill="#212121">actual_qty</text>
<text xml:space="preserve" text-anchor="start" x="633.22" y="-516.4" font-family="Arial" font-size="10.00" fill="#7a8794">int &#160;</text>
<text xml:space="preserve" text-anchor="start" x="527.78" y="-496.8" font-family="Arial" font-size="11.00" fill="#212121"> </text>
<text xml:space="preserve" text-anchor="start" x="561.78" y="-498.9" font-family="Arial" font-size="11.00" fill="#212121">difference</text>
<text xml:space="preserve" text-anchor="start" x="610.09" y="-498.9" font-family="Arial" font-size="11.00" fill="#7a8794"> ?</text>
<text xml:space="preserve" text-anchor="start" x="633.22" y="-497.2" font-family="Arial" font-size="10.00" fill="#7a8794">int &#160;</text>
</g>
<!-- inventories&#45;&gt;inventory_items -->
<g id="edge2" class="edge">
<title>inventories:e&#45;&gt;inventory_items:w</title>
<path fill="none" stroke="#8a97a6" stroke-width="1.2" d="M411.14,-587.53C453.07,-586.75 469.1,-579.86 507.76,-578.31"/>
<polygon fill="#8a97a6" stroke="#8a97a6" stroke-width="1.2" points="404.09,-591.59 404.02,-583.59 405.62,-583.58 405.69,-591.58 404.09,-591.59"/>
<polyline fill="none" stroke="#8a97a6" stroke-width="1.2" points="403.26,-587.6 407.26,-587.56"/>
<polygon fill="#8a97a6" stroke="#8a97a6" stroke-width="1.2" points="408.09,-591.56 408.02,-583.56 409.62,-583.54 409.69,-591.54 408.09,-591.56"/>
<polyline fill="none" stroke="#8a97a6" stroke-width="1.2" points="407.26,-587.56 411.26,-587.53"/>
<polygon fill="#8a97a6" stroke="#8a97a6" stroke-width="1.2" points="515.38,-578.16 523.45,-581.61 519.78,-578.08 522.98,-578.02 522.98,-578.02 522.98,-578.02 519.78,-578.08 523.31,-574.41 515.38,-578.16"/>
<ellipse fill="none" stroke="#8a97a6" stroke-width="1.2" cx="510.12" cy="-578.26" rx="3.2" ry="3.2"/>
</g>
<!-- parts -->
<g id="node7" class="node">
<title>parts</title>
<polygon fill="white" stroke="none" points="213.7,-237.6 213.7,-478.4 415.31,-478.4 415.31,-237.6 213.7,-237.6"/>
<polygon fill="none" stroke="#c9d2dc" points="213.7,-237.6 213.7,-478.4 415.31,-478.4 415.31,-237.6 213.7,-237.6"/>
<polygon fill="#e08a00" stroke="none" points="214.7,-449.8 214.7,-477.4 414.31,-477.4 414.31,-449.8 214.7,-449.8"/>
<text xml:space="preserve" text-anchor="start" x="220.7" y="-460.7" font-family="Arial" font-weight="bold" font-size="13.00" fill="white">parts</text>
<text xml:space="preserve" text-anchor="start" x="217.7" y="-438.5" font-family="Arial" font-weight="bold" font-size="9.00" fill="#c27c00">PK</text>
<text xml:space="preserve" text-anchor="start" x="251.7" y="-437.9" font-family="Arial" font-weight="bold" font-size="11.00" fill="#212121">id</text>
<text xml:space="preserve" text-anchor="start" x="345.17" y="-436.2" font-family="Arial" font-size="10.00" fill="#7a8794">int &#160;</text>
<text xml:space="preserve" text-anchor="start" x="217.7" y="-416.6" font-family="Arial" font-size="11.00" fill="#212121"> </text>
<text xml:space="preserve" text-anchor="start" x="251.7" y="-416.6" font-family="Arial" font-size="11.00" fill="#212121">sku</text>
<text xml:space="preserve" text-anchor="start" x="345.17" y="-417" font-family="Arial" font-size="10.00" fill="#7a8794">varchar(30) &#160;</text>
<text xml:space="preserve" text-anchor="start" x="217.7" y="-397.4" font-family="Arial" font-size="11.00" fill="#212121"> </text>
<text xml:space="preserve" text-anchor="start" x="251.7" y="-397.4" font-family="Arial" font-size="11.00" fill="#212121">name</text>
<text xml:space="preserve" text-anchor="start" x="345.17" y="-397.8" font-family="Arial" font-size="10.00" fill="#7a8794">varchar(150) &#160;</text>
<text xml:space="preserve" text-anchor="start" x="217.7" y="-378.2" font-family="Arial" font-size="11.00" fill="#212121"> </text>
<text xml:space="preserve" text-anchor="start" x="251.7" y="-378.2" font-family="Arial" font-size="11.00" fill="#212121">unit</text>
<text xml:space="preserve" text-anchor="start" x="345.17" y="-378.6" font-family="Arial" font-size="10.00" fill="#7a8794">varchar(10) &#160;</text>
<text xml:space="preserve" text-anchor="start" x="217.7" y="-359" font-family="Arial" font-size="11.00" fill="#212121"> </text>
<text xml:space="preserve" text-anchor="start" x="251.7" y="-359" font-family="Arial" font-size="11.00" fill="#212121">price</text>
<text xml:space="preserve" text-anchor="start" x="345.17" y="-359.4" font-family="Arial" font-size="10.00" fill="#7a8794">decimal(10,2) &#160;</text>
<text xml:space="preserve" text-anchor="start" x="217.7" y="-339.8" font-family="Arial" font-size="11.00" fill="#212121"> </text>
<text xml:space="preserve" text-anchor="start" x="251.7" y="-339.8" font-family="Arial" font-size="11.00" fill="#212121">quantity_on_hand</text>
<text xml:space="preserve" text-anchor="start" x="345.17" y="-340.2" font-family="Arial" font-size="10.00" fill="#7a8794">int &#160;</text>
<text xml:space="preserve" text-anchor="start" x="217.7" y="-320.6" font-family="Arial" font-size="11.00" fill="#212121"> </text>
<text xml:space="preserve" text-anchor="start" x="251.7" y="-320.6" font-family="Arial" font-size="11.00" fill="#212121">quantity_reserved</text>
<text xml:space="preserve" text-anchor="start" x="345.17" y="-321" font-family="Arial" font-size="10.00" fill="#7a8794">int &#160;</text>
<text xml:space="preserve" text-anchor="start" x="217.7" y="-301.4" font-family="Arial" font-size="11.00" fill="#212121"> </text>
<text xml:space="preserve" text-anchor="start" x="251.7" y="-301.4" font-family="Arial" font-size="11.00" fill="#212121">min_quantity</text>
<text xml:space="preserve" text-anchor="start" x="345.17" y="-301.8" font-family="Arial" font-size="10.00" fill="#7a8794">int &#160;</text>
<text xml:space="preserve" text-anchor="start" x="217.7" y="-282.2" font-family="Arial" font-size="11.00" fill="#212121"> </text>
<text xml:space="preserve" text-anchor="start" x="251.7" y="-284.3" font-family="Arial" font-size="11.00" fill="#212121">location</text>
<text xml:space="preserve" text-anchor="start" x="289.62" y="-284.3" font-family="Arial" font-size="11.00" fill="#7a8794"> ?</text>
<text xml:space="preserve" text-anchor="start" x="345.17" y="-282.6" font-family="Arial" font-size="10.00" fill="#7a8794">varchar(30) &#160;</text>
<text xml:space="preserve" text-anchor="start" x="217.7" y="-263" font-family="Arial" font-size="11.00" fill="#212121"> </text>
<text xml:space="preserve" text-anchor="start" x="251.7" y="-263" font-family="Arial" font-size="11.00" fill="#212121">is_active</text>
<text xml:space="preserve" text-anchor="start" x="345.17" y="-263.4" font-family="Arial" font-size="10.00" fill="#7a8794">bool &#160;</text>
<text xml:space="preserve" text-anchor="start" x="217.7" y="-243.8" font-family="Arial" font-size="11.00" fill="#212121"> </text>
<text xml:space="preserve" text-anchor="start" x="251.7" y="-243.8" font-family="Arial" font-size="11.00" fill="#212121">created_at</text>
<text xml:space="preserve" text-anchor="start" x="345.17" y="-244.2" font-family="Arial" font-size="10.00" fill="#7a8794">datetime &#160;</text>
</g>
<!-- parts&#45;&gt;inventory_items -->
<g id="edge3" class="edge">
<title>parts:e&#45;&gt;inventory_items:w</title>
<path fill="none" stroke="#8a97a6" stroke-width="1.2" d="M423.21,-440.73C478.97,-448.55 459.47,-540.72 508.13,-556.51"/>
<polygon fill="#8a97a6" stroke="#8a97a6" stroke-width="1.2" points="415.84,-444.24 416.37,-436.26 417.97,-436.37 417.43,-444.35 415.84,-444.24"/>
<polyline fill="none" stroke="#8a97a6" stroke-width="1.2" points="415.31,-440.2 419.3,-440.47"/>
<polygon fill="#8a97a6" stroke="#8a97a6" stroke-width="1.2" points="419.83,-444.51 420.36,-436.53 421.96,-436.64 421.43,-444.62 419.83,-444.51"/>
<polyline fill="none" stroke="#8a97a6" stroke-width="1.2" points="419.3,-440.47 423.29,-440.73"/>
<polygon fill="#8a97a6" stroke="#8a97a6" stroke-width="1.2" points="515.47,-557.58 522.87,-562.3 519.83,-558.22 522.99,-558.68 522.99,-558.68 522.99,-558.68 519.83,-558.22 523.91,-555.18 515.47,-557.58"/>
<ellipse fill="none" stroke="#8a97a6" stroke-width="1.2" cx="510.26" cy="-556.82" rx="3.2" ry="3.2"/>
</g>
<!-- parts&#45;&gt;part_movements -->
<g id="edge8" class="edge">
<title>parts:e&#45;&gt;part_movements:w</title>
<path fill="none" stroke="#8a97a6" stroke-width="1.2" d="M423.12,-439.74C448.21,-436.66 456.74,-419 478.38,-412.88"/>
<polygon fill="#8a97a6" stroke="#8a97a6" stroke-width="1.2" points="416.34,-444.15 415.87,-436.16 417.47,-436.07 417.94,-444.05 416.34,-444.15"/>
<polyline fill="none" stroke="#8a97a6" stroke-width="1.2" points="415.31,-440.2 419.3,-439.96"/>
<polygon fill="#8a97a6" stroke="#8a97a6" stroke-width="1.2" points="420.33,-443.91 419.86,-435.92 421.46,-435.83 421.93,-443.82 420.33,-443.91"/>
<polyline fill="none" stroke="#8a97a6" stroke-width="1.2" points="419.3,-439.96 423.29,-439.73"/>
<polygon fill="#8a97a6" stroke="#8a97a6" stroke-width="1.2" points="485.98,-411.89 494.38,-414.42 490.34,-411.32 493.51,-410.9 493.51,-410.9 493.51,-410.9 490.34,-411.32 493.44,-407.28 485.98,-411.89"/>
<ellipse fill="none" stroke="#8a97a6" stroke-width="1.2" cx="480.76" cy="-412.57" rx="3.2" ry="3.2"/>
</g>
<!-- parts&#45;&gt;part_reservations -->
<g id="edge12" class="edge">
<title>parts:e&#45;&gt;part_reservations:w</title>
<path fill="none" stroke="#8a97a6" stroke-width="1.2" d="M423.07,-439.83C529.55,-429.13 388.85,-191.64 482.25,-168.94"/>
<polygon fill="#8a97a6" stroke="#8a97a6" stroke-width="1.2" points="416.3,-444.16 415.91,-436.17 417.51,-436.09 417.9,-444.08 416.3,-444.16"/>
<polyline fill="none" stroke="#8a97a6" stroke-width="1.2" points="415.31,-440.2 419.3,-440.01"/>
<polygon fill="#8a97a6" stroke="#8a97a6" stroke-width="1.2" points="420.29,-443.97 419.91,-435.97 421.51,-435.9 421.89,-443.89 420.29,-443.97"/>
<polyline fill="none" stroke="#8a97a6" stroke-width="1.2" points="419.3,-440.01 423.3,-439.82"/>
<polygon fill="#8a97a6" stroke="#8a97a6" stroke-width="1.2" points="489.81,-168.11 498.15,-170.82 494.19,-167.63 497.36,-167.29 497.36,-167.29 497.36,-167.29 494.19,-167.63 497.37,-163.66 489.81,-168.11"/>
<ellipse fill="none" stroke="#8a97a6" stroke-width="1.2" cx="484.58" cy="-168.68" rx="3.2" ry="3.2"/>
</g>
</g>
</svg>
